<?xml version="1.0" encoding="utf-8"?>
<!-- Generator: Adobe Illustrator 20.1.0, SVG Export Plug-In . SVG Version: 6.00 Build 0)  -->
<svg version="1.0" id="Calque_1" xmlns="http://www.w3.org/2000/svg" xmlns:xlink="http://www.w3.org/1999/xlink" x="0px" y="0px"
	 viewBox="0 0 15 23.1" style="enable-background:new 0 0 15 23.1;" xml:space="preserve">
<g>
	<path d="M7.5,4.4l-7.2,7.2c-0.4,0.4-0.4,1,0,1.4c0.4,0.4,1,0.4,1.4,0l4.8-4.8v13.9c0,0.6,0.4,1,1,1s1-0.4,1-1V8.2l4.8,4.8
		c0.4,0.4,1,0.4,1.4,0c0.4-0.4,0.4-1,0-1.4L7.5,4.4z"/>
	<path d="M1,2h13c0.6,0,1-0.4,1-1c0-0.6-0.4-1-1-1H1C0.5,0,0,0.4,0,1C0,1.6,0.4,2,1,2z"/>
</g>
</svg>
