<?xml version="1.0" encoding="utf-8"?>
<!-- Generator: Adobe Illustrator 20.1.0, SVG Export Plug-In . SVG Version: 6.00 Build 0)  -->
<svg version="1.0" id="Calque_1" xmlns="http://www.w3.org/2000/svg" xmlns:xlink="http://www.w3.org/1999/xlink" x="0px" y="0px"
	 viewBox="0 0 98.3 69.6" style="enable-background:new 0 0 98.3 69.6;" xml:space="preserve">
<g>
	<path d="M74.4,0H23.9C10.8,0,0,10.8,0,23.9v21.8c0,13.2,10.8,23.9,23.9,23.9h69.8c2.6,0,4.7-2.1,4.7-4.7v-41
		C98.3,10.8,87.6,0,74.4,0z M92.3,63.6H23.9C14,63.6,6,55.6,6,45.7V23.9C6,14,14,6,23.9,6h50.5c9.9,0,17.9,8,17.9,17.9V63.6z"/>
	<ellipse transform="matrix(0.8939 -0.4483 0.4483 0.8939 -12.5337 17.6902)" cx="31.1" cy="35.3" rx="5.5" ry="5.5"/>
	<ellipse transform="matrix(0.8939 -0.4483 0.4483 0.8939 -10.6002 25.7978)" cx="49.2" cy="35.3" rx="5.5" ry="5.5"/>
	<ellipse transform="matrix(0.8939 -0.4483 0.4483 0.8939 -8.6963 33.8703)" cx="67.2" cy="35.3" rx="5.5" ry="5.5"/>
</g>
</svg>
