<?xml version="1.0" encoding="utf-8"?>
<!-- Generator: Adobe Illustrator 20.1.0, SVG Export Plug-In . SVG Version: 6.00 Build 0)  -->
<svg version="1.0" id="Calque_1" xmlns="http://www.w3.org/2000/svg" xmlns:xlink="http://www.w3.org/1999/xlink" x="0px" y="0px"
	 viewBox="0 0 143.3 143.3" style="enable-background:new 0 0 143.3 143.3;" xml:space="preserve">
<g>
	<path d="M42.1,58.8c4,0,7.3-3.3,7.2-7.2v-1.7c0-4-3.2-7.2-7.2-7.2s-7.2,3.2-7.2,7.2v1.7C34.9,55.6,38.1,58.8,42.1,58.8z"/>
	<path d="M101.2,58.8c3.9,0,7.2-3.3,7.2-7.2v-1.7c0-4-3.2-7.2-7.2-7.2S94,45.9,94,49.9v1.7C94,55.6,97.2,58.8,101.2,58.8z"/>
	<path d="M81.9,72.5c-12.9-3.1-26.4-0.6-36.9,7c-5.9,4.2-10.8,9.8-14.2,16.2c-1,2-0.2,4.4,1.7,5.4c0.6,0.3,1.2,0.4,1.8,0.4
		c1.4,0,2.8-0.8,3.6-2.2c2.7-5.2,6.8-10,11.7-13.4c8.7-6.2,19.8-8.3,30.5-5.7c10.8,2.6,19.8,9.5,24.8,19.1c1,2,3.4,2.7,5.4,1.7
		c2-1,2.7-3.4,1.7-5.4C105.9,84,95,75.6,81.9,72.5z"/>
	<path d="M71.7,0C32.2,0,0,32.2,0,71.7c0,39.5,32.2,71.7,71.7,71.7s71.7-32.2,71.7-71.7S111.1,0,71.7,0z M71.6,131.8
		c-33,0-60.2-27.1-60.2-60.2c0-33.1,27.1-60.3,60.2-60.3c33.1,0,60.4,27.1,60.4,60.4C132,104.7,104.7,131.8,71.6,131.8z"/>
</g>
</svg>
