<?xml version="1.0" encoding="utf-8"?>
<!-- Generator: Adobe Illustrator 20.1.0, SVG Export Plug-In . SVG Version: 6.00 Build 0)  -->
<svg version="1.0" id="Calque_1" xmlns="http://www.w3.org/2000/svg" xmlns:xlink="http://www.w3.org/1999/xlink" x="0px" y="0px"
	 viewBox="0 0 143.3 143.3" style="enable-background:new 0 0 143.3 143.3;" xml:space="preserve">
<g>
	<path d="M105.7,70.1H37.3c-4.4,0-8,3.6-8,8c0,19.4,15.9,35.3,35.3,35.3h13.8c19.4,0,35.3-15.9,35.3-35.3
		C113.7,73.7,110.1,70.1,105.7,70.1z"/>
	<path d="M38.3,55.5h7.8c1.6,0,3-1.1,3.2-2.8c0-0.2,0-2.5,0.1-2.7c0.1-3.9-3.2-7.3-7.1-7.3c-4,0-7.3,3.2-7.3,7.2c0,0.3,0,2.6,0,2.8
		C35.2,54.3,36.6,55.5,38.3,55.5z"/>
	<path d="M97.3,55.5h7.8c1.6,0,3-1.1,3.2-2.8c0-0.2,0-2.5,0.1-2.7c0.1-3.9-3.2-7.3-7.1-7.3c-4,0-7.3,3.2-7.3,7.2c0,0.3,0,2.6,0,2.8
		C94.2,54.3,95.6,55.5,97.3,55.5z"/>
	<path d="M71.7,0C32.2,0,0,32.2,0,71.7c0,39.5,32.2,71.7,71.7,71.7s71.7-32.2,71.7-71.7S111.1,0,71.7,0z M71.6,131.8
		c-33,0-60.2-27.1-60.2-60.2c0-33.1,27.1-60.3,60.2-60.3c33.1,0,60.4,27.1,60.4,60.4C132,104.7,104.7,131.8,71.6,131.8z"/>
</g>
</svg>
