<?xml version="1.0" encoding="utf-8"?>
<!-- Generator: Adobe Illustrator 20.1.0, SVG Export Plug-In . SVG Version: 6.00 Build 0)  -->
<svg version="1.0" id="Calque_1" xmlns="http://www.w3.org/2000/svg" xmlns:xlink="http://www.w3.org/1999/xlink" x="0px" y="0px"
	 viewBox="0 0 69.2 69.2" style="enable-background:new 0 0 69.2 69.2;" xml:space="preserve">
<g>
	<path d="M40.1,33.7l-7.7-5c-0.8-0.6-1.9,0-1.9,1v10.2c0,1,1.1,1.5,1.9,1.1l7.7-5.3C40.9,35.2,40.8,34.2,40.1,33.7z"/>
	<path d="M52.2,0H16.9C7.6,0,0,7.6,0,16.9v35.3c0,9.3,7.6,16.9,16.9,16.9h35.3c9.3,0,16.9-7.6,16.9-16.9V16.9
		C69.2,7.6,61.5,0,52.2,0z M63.1,52.2c0,6-4.9,10.9-10.9,10.9H16.9c-6,0-10.9-4.9-10.9-10.9V16.9C6,10.9,10.9,6,16.9,6h35.3
		c6,0,10.9,4.9,10.9,10.9V52.2z"/>
</g>
</svg>
