<?xml version="1.0" encoding="utf-8"?>
<!-- Generator: Adobe Illustrator 20.1.0, SVG Export Plug-In . SVG Version: 6.00 Build 0)  -->
<svg version="1.0" id="Calque_1" xmlns="http://www.w3.org/2000/svg" xmlns:xlink="http://www.w3.org/1999/xlink" x="0px" y="0px"
	 viewBox="0 0 12.6 11.1" style="enable-background:new 0 0 12.6 11.1;" xml:space="preserve">
<g>
	<polygon points="10,0 10.1,0.1 10.1,0 	"/>
	<path d="M4.7,4.4C3.3,2.9,1.8,1.5,0,1.5v1c1.3,0,2.6,1.2,4,2.6L4.7,4.4z"/>
	<path d="M8.5,3.1c0.6-0.3,1.1-0.5,1.6-0.6v1.6l0.8-0.7L12.6,2l-2.5-1.9v1.4C9.4,1.6,8.7,1.9,8,2.3C7,2.9,6.1,3.9,5.2,4.8
		c-0.9,1-1.7,1.9-2.6,2.6C1.7,8.1,0.9,8.5,0.1,8.5v1c1.1,0,2.2-0.5,3.1-1.3C4.1,7.4,5,6.4,5.9,5.5C6.8,4.5,7.7,3.7,8.5,3.1z"/>
	<path d="M10,8.5C9.5,8.5,9.1,8.3,8.6,8C7.8,7.5,7,6.8,6.2,5.9L5.6,6.5c0.8,0.9,1.7,1.7,2.6,2.3c0.6,0.4,1.2,0.6,1.9,0.7V11l0.8-0.7
		l1.7-1.4l-2.6-2V8.5z"/>
</g>
</svg>
