<?xml version="1.0" encoding="utf-8"?>
<!-- Generator: Adobe Illustrator 20.1.0, SVG Export Plug-In . SVG Version: 6.00 Build 0)  -->
<svg version="1.0" id="Calque_1" xmlns="http://www.w3.org/2000/svg" xmlns:xlink="http://www.w3.org/1999/xlink" x="0px" y="0px"
	 viewBox="0 0 66.5 67.7" style="enable-background:new 0 0 66.5 67.7;" xml:space="preserve">
<path d="M65.7,62.9L53.2,50.4c4.7-5.4,7.6-12.4,7.6-20C60.8,13.6,47.2,0,30.4,0C13.6,0,0,13.6,0,30.4c0,16.8,13.6,30.4,30.4,30.4
	c7.1,0,13.6-2.4,18.7-6.5l12.7,12.6c1,1,2.7,1,3.7,0l0.3-0.3C66.8,65.5,66.8,63.9,65.7,62.9z M6,30.4C6,16.9,16.9,6,30.4,6
	c13.5,0,24.4,10.9,24.4,24.4c0,13.5-10.9,24.4-24.4,24.4C16.9,54.8,6,43.9,6,30.4z"/>
</svg>
