<?xml version="1.0" encoding="utf-8"?>
<!-- Generator: Adobe Illustrator 20.1.0, SVG Export Plug-In . SVG Version: 6.00 Build 0)  -->
<svg version="1.0" id="Calque_1" xmlns="http://www.w3.org/2000/svg" xmlns:xlink="http://www.w3.org/1999/xlink" x="0px" y="0px"
	 viewBox="0 0 44.1 63" style="enable-background:new 0 0 44.1 63;" xml:space="preserve">
<path d="M40.8,60.9c-0.3,0-0.6-0.1-0.9-0.3l-22.5-17H4.8c-1.7,0-3-1.4-3-3V22.4c0-1.7,1.4-3,3-3h12.6l22.5-17
	C40.4,2.1,41,2,41.5,2.3c0.5,0.3,0.8,0.8,0.8,1.3v55.7c0,0.6-0.3,1.1-0.8,1.3C41.3,60.8,41,60.9,40.8,60.9z M4.8,22.4l0,18.2l13.2,0
	c0.3,0,0.6,0.1,0.9,0.3l20.5,15.4V6.6L18.8,22.1c-0.3,0.2-0.6,0.3-0.9,0.3H4.8z"/>
<path d="M41.5,63c-0.6,0-1.1-0.2-1.5-0.5L16.9,45.1H4.1c-2.3,0-4.1-1.9-4.1-4.1V22.1c0-2.3,1.9-4.1,4.1-4.1h12.8L40,0.5
	C40.4,0.2,41,0,41.5,0c0.4,0,0.8,0.1,1.1,0.3c0.9,0.4,1.4,1.3,1.4,2.3v57.9c0,1-0.5,1.9-1.4,2.3C42.3,62.9,41.9,63,41.5,63z
	 M17.8,40c0.6,0,1.1,0.2,1.5,0.5L39,55.3V7.7L19.3,22.5c-0.4,0.3-1,0.5-1.5,0.5H5.1l0,16.9L17.8,40z"/>
<path d="M42.2,1.2c-0.5-0.3-1.2-0.2-1.6,0.2L17.3,18.9H4.1c-1.7,0-3.1,1.4-3.1,3.1v18.9c0,1.7,1.4,3.1,3.1,3.1h13.1l23.3,17.6
	c0.3,0.2,0.6,0.3,0.9,0.3c0.2,0,0.5-0.1,0.7-0.2c0.5-0.3,0.9-0.8,0.9-1.4V2.6C43.1,2,42.8,1.4,42.2,1.2z M40,57.3l-21.3-16
	c-0.3-0.2-0.6-0.3-0.9-0.3l-13.7,0l0-18.9h13.7c0.3,0,0.7-0.1,0.9-0.3L40,5.7V57.3z"/>
</svg>
