<?xml version="1.0" encoding="utf-8"?>
<!-- Generator: Adobe Illustrator 20.1.0, SVG Export Plug-In . SVG Version: 6.00 Build 0)  -->
<svg version="1.0" id="Calque_1" xmlns="http://www.w3.org/2000/svg" xmlns:xlink="http://www.w3.org/1999/xlink" x="0px" y="0px"
	 viewBox="0 0 72.4 72.4" style="enable-background:new 0 0 72.4 72.4;" xml:space="preserve">
<g>
	<path d="M36.2,0C16.2,0,0,16.2,0,36.2s16.2,36.2,36.2,36.2s36.2-16.2,36.2-36.2S56.2,0,36.2,0z M36.2,66.4C19.5,66.4,6,52.9,6,36.2
		S19.5,6,36.2,6s30.2,13.5,30.2,30.2S52.9,66.4,36.2,66.4z"/>
	<path d="M38.2,35.2V15.1c0-1.4-1.1-2.5-2.5-2.5s-2.5,1.1-2.5,2.5v21.1c0,0.7,0.3,1.3,0.7,1.8l10,9.9c0.5,0.5,1.1,0.7,1.8,0.7
		c0.6,0,1.3-0.2,1.8-0.7c1-1,1-2.6,0-3.5L38.2,35.2z"/>
</g>
</svg>
