<?xml version="1.0" encoding="utf-8"?>
<!-- Generator: Adobe Illustrator 20.1.0, SVG Export Plug-In . SVG Version: 6.00 Build 0)  -->
<svg version="1.0" id="Calque_1" xmlns="http://www.w3.org/2000/svg" xmlns:xlink="http://www.w3.org/1999/xlink" x="0px" y="0px"
	 viewBox="0 0 86 80.6" style="enable-background:new 0 0 86 80.6;" xml:space="preserve">
<g>
	<path d="M86,48.7L84.3,2.4c0-0.9-0.5-1.7-1.3-2.1c-0.8-0.4-1.7-0.4-2.5,0.1L59.8,12.8h-34L5.6,0.4C4.8-0.1,3.8-0.1,3,0.3
		C2.2,0.7,1.7,1.5,1.7,2.4L0,48.7c0,0,0,0.1,0,0.1c0,19.9,16.1,31.9,43,31.9C69.9,80.6,86,68.7,86,48.7C86,48.7,86,48.7,86,48.7z
		 M79.1,48.4c0,23-25.3,25.5-36.1,25.5c-10.9,0-36.1-2.5-36.1-25.5L8.3,8.5l16.3,10c0.4,0.2,0.8,0.4,1.3,0.4h33.8
		c0.4,0,0.9-0.1,1.2-0.3L77.7,8.5L79.1,48.4z"/>
</g>
<path d="M38.7,62.9v0.5c0,2.5,2,4.5,4.5,4.5c2.5,0,4.5-2,4.5-4.5v-0.5c-1.7-0.6-3.2-1.5-4.5-2.8C41.9,61.4,40.4,62.3,38.7,62.9z"/>
<circle cx="24.9" cy="38.2" r="4.5"/>
<path d="M41.3,57.7h3.8c1.2,0,2.2-1,2.2-2.2c0-1.2-1-2.2-2.2-2.2h-3.8c-1.2,0-2.2,1-2.2,2.2C39,56.7,40,57.7,41.3,57.7z"/>
<circle cx="61.4" cy="38.2" r="4.5"/>
</svg>
