<?xml version="1.0" encoding="utf-8"?>
<!-- Generator: Adobe Illustrator 20.1.0, SVG Export Plug-In . SVG Version: 6.00 Build 0)  -->
<svg version="1.0" id="Calque_1" xmlns="http://www.w3.org/2000/svg" xmlns:xlink="http://www.w3.org/1999/xlink" x="0px" y="0px"
	 viewBox="0 0 42.1 40" style="enable-background:new 0 0 42.1 40;" xml:space="preserve">
<path d="M40.9,14.2l-12.7-1.8L22.5,0.9c-0.2-0.3-0.4-0.6-0.7-0.7C21.6,0.1,21.3,0,21.1,0c-0.6,0-1.1,0.3-1.4,0.8L14,12.3L1.5,14.2
	c-0.4,0-0.7,0.2-0.9,0.4c-0.6,0.6-0.6,1.5,0,2.1l9.2,8.9L7.6,38.2c-0.1,0.4-0.1,0.7,0.1,1C7.9,39.7,8.4,40,9,40
	c0.2,0,0.5-0.1,0.7-0.2L21,33.9l11.4,5.9c0.2,0.1,0.5,0.2,0.7,0.2c0.1,0,0.2,0,0.4,0c0.4-0.1,0.8-0.3,1-0.6c0.3-0.3,0.4-0.7,0.3-1.1
	l-2.2-12.6l9.2-8.9c0.2-0.3,0.4-0.6,0.4-0.9C42.3,15.1,41.7,14.3,40.9,14.2z M21.8,30.8c-0.2-0.1-0.5-0.2-0.7-0.2
	c-0.3,0-0.5,0.1-0.8,0.2l-9.4,4.9l1.8-10.4c0.1-0.5,0-1-0.4-1.3l-7.6-7.3l10.6-1.5c0.5-0.1,0.9-0.4,1.1-0.8l4.7-9.5l4.7,9.5
	c0.2,0.4,0.6,0.7,1.1,0.8l10.5,1.5L29.8,24c-0.3,0.3-0.5,0.8-0.4,1.3l1.8,10.4L21.8,30.8z"/>
</svg>
